<?xml version="1.0" standalone="no"?><svg xmlns="http://www.w3.org/2000/svg" viewBox="0 0 1440 320"><path fill="#FEF5F5" fill-opacity="1" d="M0,32L24,32C48,32,96,32,144,48C192,64,240,96,288,90.7C336,85,384,43,432,21.3C480,0,528,0,576,10.7C624,21,672,43,720,85.3C768,128,816,192,864,192C912,192,960,128,1008,90.7C1056,53,1104,43,1152,69.3C1200,96,1248,160,1296,160C1344,160,1392,96,1416,64L1440,32L1440,320L1416,320C1392,320,1344,320,1296,320C1248,320,1200,320,1152,320C1104,320,1056,320,1008,320C960,320,912,320,864,320C816,320,768,320,720,320C672,320,624,320,576,320C528,320,480,320,432,320C384,320,336,320,288,320C240,320,192,320,144,320C96,320,48,320,24,320L0,320Z"></path></svg>