<svg xmlns="http://www.w3.org/2000/svg" width="153.652" height="71.888" viewBox="0 0 153.652 71.888">
  <g id="converted-path-logo" transform="translate(-484.668 -159.352)">
    <path id="Path_8" data-name="Path 8" d="M20.953-.9A16.622,16.622,0,0,1,13.746.439q-5.8,0-9.123-3.41A12.465,12.465,0,0,1,1.3-12.059a13.318,13.318,0,0,1,3.735-9.809,13.066,13.066,0,0,1,9.694-3.762,18.13,18.13,0,0,1,6.223.932v5.467a11.026,11.026,0,0,0-5.766-1.512,7.648,7.648,0,0,0-5.73,2.232,8.284,8.284,0,0,0-2.18,6.047A8.125,8.125,0,0,0,9.334-6.636a7.266,7.266,0,0,0,5.537,2.171,11.811,11.811,0,0,0,6.082-1.617ZM33.381.439a9.676,9.676,0,0,1-7.075-2.522A9.145,9.145,0,0,1,23.73-8.93,9.145,9.145,0,0,1,26.4-15.917a10.1,10.1,0,0,1,7.225-2.522,9.559,9.559,0,0,1,7.031,2.522,8.966,8.966,0,0,1,2.549,6.671,9.518,9.518,0,0,1-2.628,7.084A9.783,9.783,0,0,1,33.381.439Zm.141-14.625a3.7,3.7,0,0,0-3.059,1.354A5.969,5.969,0,0,0,29.373-9q0,5.186,4.184,5.186,3.99,0,3.99-5.326Q37.547-14.186,33.521-14.186ZM75.393,0H69.855V-10.266q0-3.92-2.883-3.92a2.649,2.649,0,0,0-2.232,1.178,4.84,4.84,0,0,0-.861,2.936V0H58.324V-10.371q0-3.814-2.83-3.814a2.713,2.713,0,0,0-2.276,1.125A4.95,4.95,0,0,0,52.365-10V0H46.811V-18h5.555v2.813h.07a6.641,6.641,0,0,1,2.417-2.347,6.643,6.643,0,0,1,3.4-.905,5.183,5.183,0,0,1,5.221,3.357,6.658,6.658,0,0,1,6.047-3.357q5.871,0,5.871,7.242Z" transform="translate(562 186.5)" fill="#e10606" stroke="#e10606" stroke-width="1"/>
    <path id="Path_7" data-name="Path 7" d="M6.995-16.394V0H5.8V-16.394H.745V-17.5h11.3v1.111ZM15.027,0V-17.5h8.179v1.111h-6.97v7.019h6.47v1.1h-6.47V-1.1h7.373V0ZM39.16-.574a11.478,11.478,0,0,1-4.431.879,7.667,7.667,0,0,1-5.853-2.411A8.819,8.819,0,0,1,26.611-8.4a9.478,9.478,0,0,1,2.454-6.83A8.252,8.252,0,0,1,35.3-17.8a11.562,11.562,0,0,1,3.857.647v1.282a9.348,9.348,0,0,0-3.882-.83,6.959,6.959,0,0,0-5.359,2.234,8.416,8.416,0,0,0-2.063,5.945,7.848,7.848,0,0,0,1.971,5.646,6.608,6.608,0,0,0,5,2.069,9.713,9.713,0,0,0,4.333-.94ZM54.285,0V-8.4H44.263V0H43.054V-17.5h1.208V-9.5H54.285V-17.5h1.2V0ZM72.351,0,61.926-14.148A8.544,8.544,0,0,1,61.365-15l-.159-.244h-.049q.024.317.024.769V0H59.973V-17.5H60.9L71.252-3.479q.342.464.745,1.123h.061Q72-3.21,72-3.821V-17.5h1.208V0ZM84.9.305a7.537,7.537,0,0,1-5.914-2.466,9.256,9.256,0,0,1-2.2-6.409,9.66,9.66,0,0,1,2.264-6.708A7.891,7.891,0,0,1,85.229-17.8a7.363,7.363,0,0,1,5.731,2.423,9.11,9.11,0,0,1,2.191,6.354,9.833,9.833,0,0,1-2.246,6.836A7.691,7.691,0,0,1,84.9.305Zm.122-17A6.434,6.434,0,0,0,80-14.49,8.365,8.365,0,0,0,78.027-8.7,8.451,8.451,0,0,0,79.9-2.948a6.278,6.278,0,0,0,4.98,2.142,6.543,6.543,0,0,0,5.139-2.118,8.551,8.551,0,0,0,1.892-5.9,8.42,8.42,0,0,0-1.849-5.792A6.394,6.394,0,0,0,85.022-16.7ZM96.729,0V-17.5h1.208V-1.1h7.019V0Zm17.358.305a7.537,7.537,0,0,1-5.914-2.466,9.256,9.256,0,0,1-2.2-6.409,9.66,9.66,0,0,1,2.264-6.708,7.891,7.891,0,0,1,6.183-2.521,7.363,7.363,0,0,1,5.731,2.423,9.11,9.11,0,0,1,2.191,6.354,9.833,9.833,0,0,1-2.246,6.836A7.691,7.691,0,0,1,114.087.305Zm.122-17a6.434,6.434,0,0,0-5.023,2.209A8.365,8.365,0,0,0,107.214-8.7a8.451,8.451,0,0,0,1.868,5.756,6.278,6.278,0,0,0,4.98,2.142A6.543,6.543,0,0,0,119.2-2.924a8.551,8.551,0,0,0,1.892-5.9,8.42,8.42,0,0,0-1.849-5.792A6.394,6.394,0,0,0,114.209-16.7ZM138.574-1.221A11.233,11.233,0,0,1,133,.305a7.453,7.453,0,0,1-5.786-2.429A9.1,9.1,0,0,1,125-8.5a9.592,9.592,0,0,1,2.38-6.641,8.112,8.112,0,0,1,6.36-2.661,11.3,11.3,0,0,1,4.48.928v1.318a10.668,10.668,0,0,0-4.651-1.147,6.767,6.767,0,0,0-5.316,2.258,8.347,8.347,0,0,0-2.008,5.762,8.323,8.323,0,0,0,1.886,5.78,6.5,6.5,0,0,0,5.084,2.094,8.175,8.175,0,0,0,4.15-1.025V-7.6H133.24V-8.7h5.334Zm9.094-5.432V0h-1.2V-6.628L141.113-17.5h1.355l4.077,8.435q.22.439.549,1.294h.049a12.679,12.679,0,0,1,.6-1.27l4.272-8.459h1.306Z" transform="translate(485 211)"/>
    <path id="Path_6" data-name="Path 6" d="M11.735,0a2.989,2.989,0,0,1-1.446-.314,2.661,2.661,0,0,1-.941-.857,8.364,8.364,0,0,1-.658-1.17L7.252-5.569l.887.643a5.524,5.524,0,0,0-.941.214,2.445,2.445,0,0,0-.819.428.869.869,0,0,0-.337.7,1.678,1.678,0,0,0,.214.765,5.715,5.715,0,0,0,.536.834l.635.834a7.325,7.325,0,0,1,.528.788A1.4,1.4,0,0,1,8.17.321a3.075,3.075,0,0,1-.62,1.836A4.278,4.278,0,0,1,5.8,3.527a6.407,6.407,0,0,1-2.662.513A8.973,8.973,0,0,1,1.27,3.871,8.33,8.33,0,0,1,.077,3.542l-.413-.161.52-1.79H.321L.979,1.8a7.44,7.44,0,0,0,1.033.229,9.118,9.118,0,0,0,1.431.1,4.76,4.76,0,0,0,2.073-.421A3.9,3.9,0,0,0,6.9.658l.015.8q-.4-.551-.9-1.14T5.041-.872a7.034,7.034,0,0,1-.773-1.216A2.763,2.763,0,0,1,3.963-3.32a2.731,2.731,0,0,1,.428-1.538A3.666,3.666,0,0,1,5.508-5.944a7.266,7.266,0,0,1,1.5-.719,13.76,13.76,0,0,1,1.576-.451l.2.077,1.3,3.075q.321.734.574,1.2a1.93,1.93,0,0,0,.574.689,1.4,1.4,0,0,0,.811.222V-.306ZM2.02-1.851a1.063,1.063,0,0,1-.75-.283,1,1,0,0,1-.306-.773.982.982,0,0,1,.306-.757A1.044,1.044,0,0,1,2-3.947a1.056,1.056,0,0,1,.757.283.95.95,0,0,1,.283.757.957.957,0,0,1-.291.773A1.044,1.044,0,0,1,2.02-1.851ZM2,.719A1.044,1.044,0,0,1,1.27.436,1.048,1.048,0,0,1,.949-.337,1.022,1.022,0,0,1,1.27-1.1,1.123,1.123,0,0,1,2-1.392a1.142,1.142,0,0,1,.75.291.934.934,0,0,1,.291.765.934.934,0,0,1-.291.765A1.142,1.142,0,0,1,2,.719ZM11.735,0V-1.561l.306-.306h7.482l-.5.26a9.286,9.286,0,0,1-1.729-1.216,23.509,23.509,0,0,1-1.958-1.92Q14.306-5.86,13.219-7.222l1.3-1.561h.138q1.683,2,2.961,3.343A28.142,28.142,0,0,0,19.829-3.32,9.715,9.715,0,0,0,21.412-2.2a2.434,2.434,0,0,0,1.063.344l1.285-.015v.153L23.149,0Zm3.641,2.555a.934.934,0,0,1,.291-.765,1.06,1.06,0,0,1,.734-.275,1.08,1.08,0,0,1,.75.275.934.934,0,0,1,.291.765.934.934,0,0,1-.291.765,1.08,1.08,0,0,1-.75.275,1.06,1.06,0,0,1-.734-.275A.934.934,0,0,1,15.377,2.555Zm9.41-6.028a3.98,3.98,0,0,1,.321-1.6,4.5,4.5,0,0,1,.864-1.316,4.008,4.008,0,0,1,1.239-.9A3.379,3.379,0,0,1,28.642-7.6a3.23,3.23,0,0,1,1.53.4,4.566,4.566,0,0,1,1.354,1.117,5.5,5.5,0,0,1,.956,1.7,6.244,6.244,0,0,1,.352,2.127,8.935,8.935,0,0,1-.574,3.389A4.543,4.543,0,0,1,30.6,3.251a4.624,4.624,0,0,1-2.632.727,6.431,6.431,0,0,1-1.629-.184,6.92,6.92,0,0,1-1.094-.367l-.4-.184.658-1.652h.153a5.154,5.154,0,0,0,1.3.444,6.321,6.321,0,0,0,1.224.138A5.5,5.5,0,0,0,29.4,2.058a3.723,3.723,0,0,0,.926-.344l-.643.551a3.749,3.749,0,0,0,.612-1.048,5.805,5.805,0,0,0,.329-1.377,14.78,14.78,0,0,0,.1-1.828,5.957,5.957,0,0,0-.153-1.339,4.619,4.619,0,0,0-.482-1.247,4.026,4.026,0,0,0-.849-1.04,3.563,3.563,0,0,0-1.27-.7L29.085-6.4a3.258,3.258,0,0,0-1.706,1.132,2.684,2.684,0,0,0-.558,1.607,1.655,1.655,0,0,0,.275.926,1.856,1.856,0,0,0,.819.666,3.254,3.254,0,0,0,1.339.245h1.882l.229-.031h2.907V-.306L33.966,0H29.024a5.8,5.8,0,0,1-2.157-.383,3.332,3.332,0,0,1-1.522-1.163A3.227,3.227,0,0,1,24.786-3.473ZM33.66,0V-1.545l.306-.306H36.72l-.734.367a1.777,1.777,0,0,1-.191-.62,6.188,6.188,0,0,1-.069-.987V-11.4l2-.229h.138v8.874q0,.306.008.734t.031.841a4.367,4.367,0,0,0,.084.689v.122a4.842,4.842,0,0,1-1.132.275A12.374,12.374,0,0,1,35.221,0Zm6.411-3.473a3.98,3.98,0,0,1,.321-1.6,4.5,4.5,0,0,1,.864-1.316,4.008,4.008,0,0,1,1.239-.9A3.379,3.379,0,0,1,43.926-7.6a3.23,3.23,0,0,1,1.53.4A4.566,4.566,0,0,1,46.81-6.089a5.5,5.5,0,0,1,.956,1.7,6.244,6.244,0,0,1,.352,2.127,8.935,8.935,0,0,1-.574,3.389,4.543,4.543,0,0,1-1.66,2.127,4.624,4.624,0,0,1-2.632.727,6.431,6.431,0,0,1-1.629-.184,6.92,6.92,0,0,1-1.094-.367l-.4-.184.658-1.652h.153a5.154,5.154,0,0,0,1.3.444,6.321,6.321,0,0,0,1.224.138,5.5,5.5,0,0,0,1.216-.115,3.723,3.723,0,0,0,.926-.344l-.643.551a3.749,3.749,0,0,0,.612-1.048,5.805,5.805,0,0,0,.329-1.377,14.78,14.78,0,0,0,.1-1.828,5.957,5.957,0,0,0-.153-1.339,4.62,4.62,0,0,0-.482-1.247,4.026,4.026,0,0,0-.849-1.04,3.563,3.563,0,0,0-1.27-.7L44.37-6.4a3.258,3.258,0,0,0-1.706,1.132,2.684,2.684,0,0,0-.558,1.607,1.655,1.655,0,0,0,.275.926,1.856,1.856,0,0,0,.819.666,3.254,3.254,0,0,0,1.339.245H46.42l.229-.031h2.907V-.306L49.251,0H44.309a5.8,5.8,0,0,1-2.157-.383,3.332,3.332,0,0,1-1.522-1.163A3.227,3.227,0,0,1,40.071-3.473Zm9.18,1.622H52.02l-.734.367a1.777,1.777,0,0,1-.191-.62,6.188,6.188,0,0,1-.069-.987V-7.742l2-.245h.138V-.979L52.3-1.851h2.968V-.306L54.958,0H48.945V-1.545Zm2.815-7.405a1.052,1.052,0,0,1-.742-.275.989.989,0,0,1-.3-.765.989.989,0,0,1,.3-.765,1.052,1.052,0,0,1,.742-.275,1.052,1.052,0,0,1,.742.275.989.989,0,0,1,.3.765.989.989,0,0,1-.3.765A1.052,1.052,0,0,1,52.066-9.257ZM68.712,0l1.53-1.851H74.4L74.389-.306,74.083,0ZM54.958,0V-1.545l.306-.306H68.712a2.624,2.624,0,0,0,1.423-.291,1.046,1.046,0,0,0,.428-.933,2.422,2.422,0,0,0-.26-1.048,3.444,3.444,0,0,0-.673-.956l.949.184q-.551.122-.949.184t-.773.084q-.375.023-.864.023H57.941a1.606,1.606,0,0,1-.987-.314,1.5,1.5,0,0,1-.482-1.155l5.982-5.539h.153l.857,1.331L58.63-5.875l-.337-.581h9.96q.673,0,1.346-.038a6.775,6.775,0,0,0,1.132-.145h.184a6.023,6.023,0,0,1,.773.887,6.105,6.105,0,0,1,.666,1.17,3.292,3.292,0,0,1,.275,1.323,2.987,2.987,0,0,1-.252,1.216,2.459,2.459,0,0,1-.849,1l-.75.734a4.326,4.326,0,0,1-.9.23A7.448,7.448,0,0,1,68.758,0ZM74.1,0V-1.545l.306-.306h2.754l-.734.367a1.792,1.792,0,0,1-.191-.627,6.336,6.336,0,0,1-.069-.995V-7.742l2-.245h.138v5.233q0,.306.008.734t.031.841a4.366,4.366,0,0,0,.084.689v.122A4.842,4.842,0,0,1,77.3-.092,12.374,12.374,0,0,1,75.659,0ZM78.5-9.517a1.063,1.063,0,0,1-.75-.283.982.982,0,0,1-.306-.757,1,1,0,0,1,.306-.773,1.063,1.063,0,0,1,.75-.283,1.036,1.036,0,0,1,.742.283,1.014,1.014,0,0,1,.3.773,1,1,0,0,1-.3.757A1.036,1.036,0,0,1,78.5-9.517Zm-2.448.306a1.036,1.036,0,0,1-.742-.283,1.014,1.014,0,0,1-.3-.773.989.989,0,0,1,.3-.765,1.052,1.052,0,0,1,.742-.275,1.052,1.052,0,0,1,.742.275.989.989,0,0,1,.3.765,1.014,1.014,0,0,1-.3.773A1.036,1.036,0,0,1,76.056-9.211ZM87.225-.6,85.374,2.57H83.048V2.417l2.892-4.3Zm7.206.6a4.043,4.043,0,0,1-1.645-.291,2.767,2.767,0,0,1-1.094-.88,6.866,6.866,0,0,1-.826-1.522L89.627-5.967l.918.291A4.631,4.631,0,0,0,89-5.386a3.814,3.814,0,0,0-1.094.635,2.479,2.479,0,0,0-.643.811,2.007,2.007,0,0,0-.207.864,1.587,1.587,0,0,0,.321,1.017,1.932,1.932,0,0,0,.834.6,2.914,2.914,0,0,0,1.063.2,5,5,0,0,0,1.53-.23,5.855,5.855,0,0,0,1.163-.49l.184.153L91.739-.046A6.968,6.968,0,0,1,90.293.49a5.731,5.731,0,0,1-1.369.184A4.764,4.764,0,0,1,87.876.551,4.742,4.742,0,0,1,86.82.176a3.471,3.471,0,0,1-.926-.666,2.945,2.945,0,0,1-.65-1.01,3.755,3.755,0,0,1-.237-1.392,3.994,3.994,0,0,1,.513-2.035A4.63,4.63,0,0,1,86.9-6.418a6.466,6.466,0,0,1,1.92-.91,7.711,7.711,0,0,1,2.157-.306l.26.138,1.3,3.687a3.638,3.638,0,0,0,.872,1.476,1.881,1.881,0,0,0,1.331.482V-.306Zm0,0V-1.545l.306-.306h13.449a2.811,2.811,0,0,0,1.423-.268.973.973,0,0,0,.428-.9,2.622,2.622,0,0,0-.26-1.079,3.315,3.315,0,0,0-.673-.987l.949.184q-.551.122-.949.184t-.773.084q-.375.023-.864.023H97.415a1.605,1.605,0,0,1-.987-.314,1.5,1.5,0,0,1-.482-1.155l5.982-5.539h.153l.857,1.331L98.1-5.875l-.337-.581h9.96q.673,0,1.346-.038a6.775,6.775,0,0,0,1.132-.145h.184a5.7,5.7,0,0,1,.78.918,6.135,6.135,0,0,1,.673,1.255,3.877,3.877,0,0,1,.275,1.454,3.378,3.378,0,0,1-.2,1.17,2.372,2.372,0,0,1-.673.964,3.24,3.24,0,0,1-1.255.65,7,7,0,0,1-1.943.23Zm23.44-2.876h.138q.168.077.474.191t.612.207q.306.092.474.153a10.019,10.019,0,0,0,1.8.321q.987.092,1.928.122t1.6.031h6.625l-.734.367a1.492,1.492,0,0,1-.2-.62,6.95,6.95,0,0,1-.061-.987V-7.742l1.989-.245h.153v5.233q0,.306.008.734t.031.841a4.367,4.367,0,0,0,.084.689l-.031.122a4.937,4.937,0,0,1-1.2.275A14.044,14.044,0,0,1,129.851,0h-4.957q-1.377,0-2.739-.077a18.259,18.259,0,0,1-3.029-.459q-.291-.076-.612-.176t-.6-.2q-.283-.1-.482-.191Zm6.441,5.416a.934.934,0,0,1,.291-.765,1.06,1.06,0,0,1,.734-.275,1.08,1.08,0,0,1,.75.275.934.934,0,0,1,.291.765.934.934,0,0,1-.291.765,1.08,1.08,0,0,1-.75.275A1.06,1.06,0,0,1,124.6,3.3.934.934,0,0,1,124.313,2.54Zm13.724,1.438a6.431,6.431,0,0,1-1.629-.184,6.92,6.92,0,0,1-1.094-.367l-.4-.184.658-1.652h.153a5.154,5.154,0,0,0,1.3.444,6.321,6.321,0,0,0,1.224.138,6.2,6.2,0,0,0,1.209-.1,3.026,3.026,0,0,0,.933-.36l-.643.551a3.749,3.749,0,0,0,.612-1.048,5.805,5.805,0,0,0,.329-1.377,14.78,14.78,0,0,0,.1-1.828,5.957,5.957,0,0,0-.153-1.339,4.62,4.62,0,0,0-.482-1.247,4.026,4.026,0,0,0-.849-1.04,3.563,3.563,0,0,0-1.27-.7l1.117-.076a3.258,3.258,0,0,0-1.706,1.132,2.684,2.684,0,0,0-.558,1.607,1.655,1.655,0,0,0,.275.926,1.856,1.856,0,0,0,.819.666,3.254,3.254,0,0,0,1.339.245,6.521,6.521,0,0,0,.788-.054,4.358,4.358,0,0,0,.849-.191l-.015,1.821a4.242,4.242,0,0,1-.949.2q-.49.046-.9.046a5.8,5.8,0,0,1-2.157-.383,3.332,3.332,0,0,1-1.522-1.163,3.227,3.227,0,0,1-.558-1.928,3.98,3.98,0,0,1,.321-1.6,4.5,4.5,0,0,1,.864-1.316,4.008,4.008,0,0,1,1.239-.9A3.379,3.379,0,0,1,138.71-7.6a3.23,3.23,0,0,1,1.53.4,4.566,4.566,0,0,1,1.354,1.117,5.5,5.5,0,0,1,.956,1.7,6.244,6.244,0,0,1,.352,2.127,8.935,8.935,0,0,1-.574,3.389,4.543,4.543,0,0,1-1.66,2.127A4.624,4.624,0,0,1,138.037,3.978Z" transform="translate(490 227)" fill="#e10606" stroke="#e10606" stroke-width="0.4"/>
    <path id="Path_5" data-name="Path 5" d="M35.859-25.207,29.2,0H22.9L18.721-16.172a13.484,13.484,0,0,1-.4-2.83h-.07a17.194,17.194,0,0,1-.457,2.83L13.5,0H6.943L.316-25.207H6.521L10.072-8.42a20.039,20.039,0,0,1,.334,2.883h.105a13.954,13.954,0,0,1,.51-2.953l4.57-16.717h6.082L25.8-8.279a20.728,20.728,0,0,1,.4,2.707h.07a18.148,18.148,0,0,1,.369-2.812l3.48-16.822ZM53.719-7.418H41.977q.281,3.92,4.939,3.92A9.643,9.643,0,0,0,52.137-4.9V-.9A13.715,13.715,0,0,1,45.65.439a9.131,9.131,0,0,1-6.768-2.417,9.132,9.132,0,0,1-2.408-6.741,9.633,9.633,0,0,1,2.6-7.1,8.667,8.667,0,0,1,6.4-2.619A7.867,7.867,0,0,1,51.565-16.1a9,9,0,0,1,2.153,6.346Zm-5.15-3.41q0-3.867-3.129-3.867a2.987,2.987,0,0,0-2.312,1.107,5.026,5.026,0,0,0-1.187,2.76Zm14.08,8.736h-.07V0H57.023V-26.648h5.555v11.355h.07A6.591,6.591,0,0,1,68.5-18.439a6.423,6.423,0,0,1,5.361,2.391A10.309,10.309,0,0,1,75.744-9.51a11.164,11.164,0,0,1-2.2,7.225A7.158,7.158,0,0,1,67.676.439,5.671,5.671,0,0,1,62.648-2.092ZM62.49-9.686V-7.84a4.213,4.213,0,0,0,1,2.883,3.26,3.26,0,0,0,2.566,1.143A3.406,3.406,0,0,0,69-5.282a7.087,7.087,0,0,0,1.046-4.157,5.638,5.638,0,0,0-.958-3.489,3.233,3.233,0,0,0-2.733-1.257,3.531,3.531,0,0,0-2.769,1.248A4.741,4.741,0,0,0,62.49-9.686Z" transform="translate(485 186.5)" stroke="#000" stroke-width="1"/>
  </g>
</svg>
